<svg xmlns="http://www.w3.org/2000/svg" viewBox="0 0 800 450"><rect width="800" height="450" fill="#0b100e"/><radialGradient id="g" cx="50%" cy="45%" r="65%"><stop offset="0%" stop-color="#dc947c" stop-opacity=".14"/><stop offset="100%" stop-color="#dc947c" stop-opacity="0"/></radialGradient><circle cx="356" cy="202" r="318" fill="url(#g)"/><circle cx="639.3" cy="447.1" r="1.3" fill="#9db8c8" opacity="0.14"/><circle cx="168.9" cy="204.4" r="1.1" fill="#dc947c" opacity="0.15"/><circle cx="583.1" cy="72.5" r="0.9" fill="#9db8c8" opacity="0.17"/><circle cx="688.9" cy="0.8" r="1.3" fill="#dc947c" opacity="0.13"/><circle cx="20.4" cy="359.1" r="1.2" fill="#dc947c" opacity="0.32"/><circle cx="186.5" cy="244.2" r="0.5" fill="#dc947c" opacity="0.31"/><circle cx="220.6" cy="149.4" r="1.4" fill="#dc947c" opacity="0.20"/><circle cx="794.5" cy="341.5" r="1.5" fill="#9db8c8" opacity="0.18"/><circle cx="79.1" cy="43.0" r="1.5" fill="#dc947c" opacity="0.32"/><circle cx="640.3" cy="39.7" r="1.4" fill="#9db8c8" opacity="0.09"/><circle cx="545.0" cy="294.8" r="1.5" fill="#dc947c" opacity="0.30"/><circle cx="466.5" cy="24.0" r="0.6" fill="#dc947c" opacity="0.25"/><circle cx="506.4" cy="130.4" r="1.1" fill="#dc947c" opacity="0.19"/><circle cx="36.4" cy="26.2" r="1.1" fill="#9db8c8" opacity="0.14"/><circle cx="101.1" cy="83.8" r="1.1" fill="#dc947c" opacity="0.14"/><circle cx="526.4" cy="68.5" r="1.3" fill="#9db8c8" opacity="0.18"/><circle cx="615.0" cy="380.2" r="0.5" fill="#dc947c" opacity="0.24"/><circle cx="644.3" cy="25.0" r="1.1" fill="#9db8c8" opacity="0.27"/><circle cx="544.3" cy="133.9" r="1.1" fill="#dc947c" opacity="0.32"/><circle cx="77.8" cy="244.0" r="0.7" fill="#dc947c" opacity="0.33"/><circle cx="708.0" cy="10.9" r="0.7" fill="#9db8c8" opacity="0.27"/><circle cx="255.5" cy="168.0" r="1.5" fill="#dc947c" opacity="0.12"/><circle cx="671.6" cy="239.3" r="0.8" fill="#9db8c8" opacity="0.23"/><circle cx="654.5" cy="207.3" r="1.6" fill="#9db8c8" opacity="0.23"/><circle cx="489.3" cy="99.6" r="0.6" fill="#9db8c8" opacity="0.14"/><circle cx="475.3" cy="349.8" r="1.6" fill="#9db8c8" opacity="0.17"/><circle cx="471.5" cy="40.0" r="1.3" fill="#dc947c" opacity="0.11"/><circle cx="785.4" cy="164.4" r="0.9" fill="#dc947c" opacity="0.29"/><circle cx="535.2" cy="444.7" r="0.7" fill="#9db8c8" opacity="0.10"/><circle cx="227.8" cy="434.5" r="0.7" fill="#dc947c" opacity="0.09"/><circle cx="244.3" cy="270.7" r="1.3" fill="#9db8c8" opacity="0.09"/><circle cx="760.3" cy="336.2" r="0.8" fill="#9db8c8" opacity="0.24"/><circle cx="693.5" cy="96.3" r="0.6" fill="#dc947c" opacity="0.21"/><circle cx="732.1" cy="84.5" r="1.5" fill="#9db8c8" opacity="0.14"/><circle cx="484.6" cy="88.2" r="1.5" fill="#dc947c" opacity="0.10"/><circle cx="667.0" cy="110.0" r="0.5" fill="#9db8c8" opacity="0.31"/><circle cx="114.2" cy="305.5" r="0.7" fill="#9db8c8" opacity="0.18"/><circle cx="94.4" cy="102.3" r="0.8" fill="#dc947c" opacity="0.12"/><circle cx="244.9" cy="385.1" r="1.0" fill="#9db8c8" opacity="0.24"/><circle cx="263.8" cy="104.2" r="0.8" fill="#dc947c" opacity="0.21"/><circle cx="603.2" cy="211.1" r="0.7" fill="#9db8c8" opacity="0.27"/><circle cx="134.3" cy="396.4" r="0.7" fill="#9db8c8" opacity="0.24"/><circle cx="487.1" cy="6.1" r="0.5" fill="#9db8c8" opacity="0.27"/><circle cx="700.9" cy="441.6" r="0.6" fill="#9db8c8" opacity="0.11"/><circle cx="791.8" cy="11.2" r="1.4" fill="#9db8c8" opacity="0.29"/><circle cx="299.2" cy="177.1" r="1.0" fill="#dc947c" opacity="0.11"/><circle cx="610.1" cy="358.1" r="1.1" fill="#dc947c" opacity="0.30"/><circle cx="306.8" cy="111.4" r="0.7" fill="#dc947c" opacity="0.21"/><circle cx="247.6" cy="327.4" r="1.5" fill="#dc947c" opacity="0.31"/><circle cx="675.3" cy="219.4" r="1.5" fill="#9db8c8" opacity="0.16"/><circle cx="575.1" cy="266.5" r="0.6" fill="#dc947c" opacity="0.20"/><circle cx="285.5" cy="65.5" r="1.2" fill="#9db8c8" opacity="0.23"/><circle cx="726.4" cy="252.9" r="0.6" fill="#9db8c8" opacity="0.20"/><circle cx="784.3" cy="322.0" r="1.4" fill="#9db8c8" opacity="0.27"/><circle cx="739.1" cy="209.5" r="1.0" fill="#9db8c8" opacity="0.25"/><circle cx="41.5" cy="284.1" r="0.6" fill="#dc947c" opacity="0.13"/><circle cx="323.2" cy="101.7" r="1.5" fill="#9db8c8" opacity="0.09"/><circle cx="209.6" cy="284.0" r="1.4" fill="#9db8c8" opacity="0.25"/><circle cx="361.1" cy="364.7" r="1.2" fill="#9db8c8" opacity="0.17"/><circle cx="663.8" cy="23.3" r="0.7" fill="#9db8c8" opacity="0.33"/><circle cx="384.3" cy="169.3" r="1.6" fill="#9db8c8" opacity="0.19"/><circle cx="61.1" cy="130.8" r="0.9" fill="#9db8c8" opacity="0.20"/><circle cx="599.2" cy="152.8" r="1.5" fill="#dc947c" opacity="0.24"/><circle cx="127.1" cy="408.6" r="1.5" fill="#dc947c" opacity="0.23"/><circle cx="782.5" cy="365.8" r="0.9" fill="#dc947c" opacity="0.29"/><circle cx="109.0" cy="73.3" r="0.7" fill="#9db8c8" opacity="0.22"/><circle cx="152.5" cy="58.1" r="1.5" fill="#9db8c8" opacity="0.33"/><circle cx="764.7" cy="30.9" r="1.3" fill="#9db8c8" opacity="0.10"/><circle cx="133.8" cy="225.3" r="0.6" fill="#9db8c8" opacity="0.32"/><circle cx="591.7" cy="254.5" r="1.0" fill="#dc947c" opacity="0.14"/><circle cx="63.6" cy="368.5" r="1.2" fill="#9db8c8" opacity="0.11"/><circle cx="659.1" cy="13.4" r="1.5" fill="#dc947c" opacity="0.25"/><circle cx="97.4" cy="292.9" r="0.6" fill="#dc947c" opacity="0.18"/><circle cx="686.7" cy="346.7" r="0.6" fill="#9db8c8" opacity="0.27"/><circle cx="720.2" cy="63.2" r="1.5" fill="#dc947c" opacity="0.31"/><circle cx="628.7" cy="377.3" r="1.3" fill="#9db8c8" opacity="0.14"/><circle cx="526.3" cy="1.6" r="0.5" fill="#9db8c8" opacity="0.13"/><circle cx="796.7" cy="207.5" r="0.7" fill="#dc947c" opacity="0.14"/><circle cx="312.9" cy="60.1" r="0.9" fill="#9db8c8" opacity="0.18"/><circle cx="472.8" cy="444.3" r="1.6" fill="#dc947c" opacity="0.19"/><circle cx="759.3" cy="86.7" r="1.5" fill="#9db8c8" opacity="0.27"/><circle cx="784.7" cy="102.5" r="1.0" fill="#9db8c8" opacity="0.12"/><circle cx="108.8" cy="448.1" r="0.7" fill="#dc947c" opacity="0.15"/><circle cx="150.4" cy="125.9" r="1.3" fill="#9db8c8" opacity="0.23"/><circle cx="86.7" cy="4.5" r="1.4" fill="#9db8c8" opacity="0.10"/><circle cx="188.1" cy="189.3" r="1.0" fill="#dc947c" opacity="0.14"/><circle cx="362.8" cy="371.4" r="1.1" fill="#9db8c8" opacity="0.10"/><circle cx="503.8" cy="169.7" r="0.5" fill="#9db8c8" opacity="0.28"/><circle cx="337.6" cy="154.4" r="1.5" fill="#dc947c" opacity="0.16"/><circle cx="733.0" cy="263.6" r="0.5" fill="#9db8c8" opacity="0.23"/><circle cx="373.5" cy="315.3" r="0.8" fill="#e8a184" opacity="0.73"/><circle cx="219.5" cy="309.5" r="1.1" fill="#e8a184" opacity="0.68"/><circle cx="417.4" cy="320.4" r="0.9" fill="#fff0e0" opacity="0.70"/><circle cx="505.0" cy="79.7" r="2.2" fill="#e8a184" opacity="0.66"/><circle cx="276.1" cy="91.1" r="1.9" fill="#e8a184" opacity="0.73"/><circle cx="230.0" cy="343.1" r="1.4" fill="#e8a184" opacity="0.71"/><circle cx="253.9" cy="341.8" r="2.1" fill="#e8a184" opacity="0.67"/><circle cx="223.7" cy="92.8" r="1.6" fill="#e8a184" opacity="0.77"/><circle cx="179.4" cy="158.3" r="2.1" fill="#fff0e0" opacity="0.45"/><circle cx="486.5" cy="187.2" r="1.2" fill="#e8a184" opacity="0.90"/><circle cx="497.7" cy="148.4" r="2.2" fill="#fff0e0" opacity="0.61"/><circle cx="339.3" cy="327.6" r="1.7" fill="#e8a184" opacity="0.51"/><circle cx="239.5" cy="342.9" r="1.0" fill="#fff0e0" opacity="0.81"/><circle cx="488.9" cy="200.3" r="0.8" fill="#e8a184" opacity="0.84"/><circle cx="300.8" cy="70.7" r="2.0" fill="#e8a184" opacity="0.56"/><circle cx="175.8" cy="150.6" r="1.3" fill="#e8a184" opacity="0.58"/><circle cx="393.1" cy="72.3" r="1.3" fill="#e8a184" opacity="0.61"/><circle cx="502.5" cy="155.2" r="1.2" fill="#fff0e0" opacity="0.51"/><circle cx="499.8" cy="124.5" r="1.9" fill="#fff0e0" opacity="0.70"/><circle cx="523.1" cy="278.1" r="1.7" fill="#fff0e0" opacity="0.86"/><circle cx="443.7" cy="58.9" r="1.7" fill="#e8a184" opacity="0.52"/><circle cx="249.6" cy="350.0" r="2.3" fill="#e8a184" opacity="0.86"/><circle cx="194.6" cy="109.0" r="1.1" fill="#fff0e0" opacity="0.60"/><circle cx="184.7" cy="142.0" r="1.0" fill="#e8a184" opacity="0.82"/><circle cx="361.8" cy="79.8" r="1.7" fill="#e8a184" opacity="0.72"/><circle cx="527.8" cy="260.2" r="1.4" fill="#fff0e0" opacity="0.83"/><circle cx="180.2" cy="154.9" r="1.9" fill="#e8a184" opacity="0.90"/><circle cx="482.8" cy="187.2" r="1.7" fill="#e8a184" opacity="0.78"/><circle cx="483.6" cy="86.3" r="1.6" fill="#e8a184" opacity="0.62"/><circle cx="215.6" cy="320.4" r="1.5" fill="#e8a184" opacity="0.85"/><circle cx="224.8" cy="231.9" r="1.3" fill="#fff0e0" opacity="0.63"/><circle cx="313.0" cy="66.3" r="1.3" fill="#e8a184" opacity="0.42"/><circle cx="274.0" cy="362.4" r="1.9" fill="#fff0e0" opacity="0.84"/><circle cx="233.0" cy="266.5" r="0.8" fill="#e8a184" opacity="0.89"/><circle cx="541.0" cy="287.1" r="1.0" fill="#e8a184" opacity="0.59"/><circle cx="400.6" cy="303.7" r="1.8" fill="#e8a184" opacity="0.68"/><circle cx="454.7" cy="318.7" r="2.0" fill="#e8a184" opacity="0.72"/><circle cx="488.0" cy="169.0" r="2.1" fill="#fff0e0" opacity="0.78"/><circle cx="493.4" cy="104.8" r="0.8" fill="#fff0e0" opacity="0.95"/><circle cx="502.7" cy="172.3" r="0.8" fill="#fff0e0" opacity="0.75"/><circle cx="282.5" cy="361.4" r="1.8" fill="#fff0e0" opacity="0.72"/><circle cx="209.7" cy="205.9" r="2.3" fill="#e8a184" opacity="0.40"/><circle cx="406.6" cy="317.4" r="2.2" fill="#e8a184" opacity="0.95"/><circle cx="215.8" cy="226.9" r="1.7" fill="#e8a184" opacity="0.60"/><circle cx="377.2" cy="68.9" r="0.9" fill="#fff0e0" opacity="0.83"/><circle cx="209.5" cy="123.7" r="1.6" fill="#e8a184" opacity="0.68"/><circle cx="487.5" cy="183.7" r="1.1" fill="#e8a184" opacity="0.95"/><circle cx="245.5" cy="81.9" r="1.3" fill="#e8a184" opacity="0.56"/><circle cx="453.8" cy="79.8" r="1.1" fill="#fff0e0" opacity="0.92"/><circle cx="501.3" cy="106.4" r="1.4" fill="#e8a184" opacity="0.87"/><circle cx="509.7" cy="239.1" r="1.3" fill="#fff0e0" opacity="0.77"/><circle cx="424.8" cy="316.6" r="1.0" fill="#e8a184" opacity="0.56"/><circle cx="240.0" cy="102.4" r="1.9" fill="#e8a184" opacity="0.55"/><circle cx="488.8" cy="321.2" r="0.8" fill="#e8a184" opacity="0.95"/><circle cx="382.9" cy="314.2" r="0.7" fill="#e8a184" opacity="0.95"/><circle cx="506.9" cy="319.9" r="1.8" fill="#e8a184" opacity="0.90"/><circle cx="240.7" cy="342.0" r="2.0" fill="#e8a184" opacity="0.95"/><circle cx="507.0" cy="151.1" r="0.9" fill="#fff0e0" opacity="0.39"/><circle cx="219.8" cy="101.4" r="1.9" fill="#e8a184" opacity="0.44"/><circle cx="236.2" cy="244.0" r="1.1" fill="#fff0e0" opacity="0.95"/><circle cx="291.9" cy="78.4" r="2.2" fill="#e8a184" opacity="0.32"/><circle cx="376.0" cy="71.4" r="0.7" fill="#e8a184" opacity="0.71"/><circle cx="231.6" cy="288.0" r="0.9" fill="#e8a184" opacity="0.34"/><circle cx="207.9" cy="110.3" r="1.4" fill="#e8a184" opacity="0.75"/><circle cx="311.6" cy="76.0" r="1.4" fill="#e8a184" opacity="0.44"/><circle cx="505.5" cy="126.2" r="2.1" fill="#e8a184" opacity="0.68"/><circle cx="227.9" cy="239.4" r="0.8" fill="#e8a184" opacity="0.94"/><circle cx="518.8" cy="324.6" r="1.0" fill="#e8a184" opacity="0.92"/><circle cx="174.2" cy="130.6" r="1.5" fill="#e8a184" opacity="0.83"/><circle cx="284.4" cy="85.0" r="2.1" fill="#fff0e0" opacity="0.33"/><circle cx="497.2" cy="323.1" r="2.2" fill="#e8a184" opacity="0.95"/><circle cx="387.9" cy="75.7" r="1.8" fill="#fff0e0" opacity="0.40"/><circle cx="489.5" cy="165.3" r="1.6" fill="#fff0e0" opacity="0.47"/><circle cx="416.3" cy="67.9" r="1.0" fill="#e8a184" opacity="0.71"/><circle cx="528.3" cy="258.3" r="0.9" fill="#e8a184" opacity="0.81"/><circle cx="270.6" cy="90.1" r="1.1" fill="#e8a184" opacity="0.39"/><circle cx="286.1" cy="365.1" r="1.8" fill="#fff0e0" opacity="0.72"/><circle cx="508.0" cy="150.8" r="1.8" fill="#e8a184" opacity="0.33"/><circle cx="538.4" cy="277.0" r="1.0" fill="#fff0e0" opacity="0.60"/><circle cx="177.6" cy="124.7" r="1.5" fill="#e8a184" opacity="0.63"/><circle cx="515.6" cy="245.0" r="0.8" fill="#e8a184" opacity="0.39"/><circle cx="422.5" cy="324.5" r="2.2" fill="#fff0e0" opacity="0.83"/><circle cx="499.3" cy="126.2" r="1.4" fill="#e8a184" opacity="0.79"/><circle cx="400.4" cy="72.6" r="1.0" fill="#e8a184" opacity="0.56"/><circle cx="214.5" cy="214.7" r="0.8" fill="#e8a184" opacity="0.56"/><circle cx="392.3" cy="311.7" r="1.8" fill="#e8a184" opacity="0.78"/><circle cx="446.8" cy="67.7" r="1.4" fill="#e8a184" opacity="0.46"/><circle cx="223.7" cy="261.9" r="1.9" fill="#fff0e0" opacity="0.49"/><circle cx="327.7" cy="71.3" r="0.8" fill="#e8a184" opacity="0.41"/><circle cx="492.0" cy="189.0" r="1.5" fill="#e8a184" opacity="0.86"/><circle cx="323.2" cy="340.6" r="1.8" fill="#fff0e0" opacity="0.57"/><circle cx="535.3" cy="262.6" r="1.1" fill="#e8a184" opacity="0.55"/><circle cx="475.5" cy="85.3" r="2.1" fill="#fff0e0" opacity="0.70"/><circle cx="508.5" cy="98.3" r="1.4" fill="#e8a184" opacity="0.48"/><circle cx="297.6" cy="72.8" r="1.9" fill="#e8a184" opacity="0.65"/><circle cx="533.3" cy="275.4" r="2.1" fill="#e8a184" opacity="0.65"/><circle cx="270.3" cy="79.5" r="1.9" fill="#fff0e0" opacity="0.56"/><circle cx="437.1" cy="327.0" r="2.2" fill="#e8a184" opacity="0.43"/><circle cx="464.6" cy="81.4" r="0.8" fill="#fff0e0" opacity="0.68"/><circle cx="228.6" cy="97.9" r="1.7" fill="#e8a184" opacity="0.51"/><circle cx="226.8" cy="274.2" r="1.0" fill="#e8a184" opacity="0.55"/><circle cx="397.0" cy="58.4" r="2.3" fill="#fff0e0" opacity="0.82"/><circle cx="374.7" cy="314.7" r="2.2" fill="#fff0e0" opacity="0.84"/><circle cx="222.3" cy="236.6" r="1.1" fill="#e8a184" opacity="0.70"/><circle cx="201.1" cy="104.2" r="1.6" fill="#e8a184" opacity="0.44"/><circle cx="516.7" cy="138.7" r="1.1" fill="#e8a184" opacity="0.62"/><circle cx="413.6" cy="70.2" r="1.5" fill="#e8a184" opacity="0.72"/><circle cx="284.9" cy="73.7" r="1.0" fill="#e8a184" opacity="0.64"/><circle cx="457.4" cy="68.1" r="2.1" fill="#e8a184" opacity="0.56"/><circle cx="510.9" cy="134.1" r="1.8" fill="#e8a184" opacity="0.70"/><circle cx="196.5" cy="197.6" r="1.1" fill="#e8a184" opacity="0.46"/><circle cx="488.7" cy="338.6" r="0.7" fill="#fff0e0" opacity="0.90"/><circle cx="470.0" cy="334.6" r="1.5" fill="#e8a184" opacity="0.45"/><circle cx="234.2" cy="269.8" r="2.0" fill="#fff0e0" opacity="0.47"/><circle cx="278.7" cy="79.5" r="0.8" fill="#fff0e0" opacity="0.32"/><circle cx="277.8" cy="77.7" r="0.9" fill="#e8a184" opacity="0.41"/><circle cx="492.3" cy="158.4" r="2.3" fill="#e8a184" opacity="0.49"/><circle cx="501.2" cy="115.2" r="1.5" fill="#e8a184" opacity="0.63"/><circle cx="518.2" cy="257.5" r="1.2" fill="#fff0e0" opacity="0.66"/><circle cx="492.7" cy="201.8" r="1.1" fill="#fff0e0" opacity="0.93"/><circle cx="230.7" cy="300.7" r="2.1" fill="#e8a184" opacity="0.81"/><circle cx="490.8" cy="329.0" r="1.0" fill="#fff0e0" opacity="0.75"/><circle cx="200.8" cy="107.4" r="1.3" fill="#e8a184" opacity="0.86"/><circle cx="407.8" cy="70.0" r="2.0" fill="#e8a184" opacity="0.66"/><circle cx="363.0" cy="322.9" r="1.2" fill="#e8a184" opacity="0.60"/><circle cx="449.4" cy="79.0" r="1.0" fill="#e8a184" opacity="0.84"/><circle cx="199.9" cy="127.1" r="1.9" fill="#e8a184" opacity="0.81"/><circle cx="494.2" cy="106.6" r="0.8" fill="#e8a184" opacity="0.76"/><circle cx="326.7" cy="60.2" r="1.6" fill="#e8a184" opacity="0.73"/><circle cx="187.7" cy="121.7" r="1.4" fill="#fff0e0" opacity="0.80"/><circle cx="526.0" cy="255.1" r="1.8" fill="#e8a184" opacity="0.38"/><circle cx="245.6" cy="81.8" r="1.7" fill="#e8a184" opacity="0.59"/><circle cx="415.6" cy="315.9" r="0.8" fill="#fff0e0" opacity="0.68"/><circle cx="489.6" cy="189.1" r="2.0" fill="#fff0e0" opacity="0.58"/><circle cx="376.4" cy="79.0" r="2.0" fill="#e8a184" opacity="0.47"/><circle cx="376.1" cy="313.2" r="1.9" fill="#e8a184" opacity="0.95"/><circle cx="364.8" cy="312.6" r="1.0" fill="#e8a184" opacity="0.77"/><circle cx="502.4" cy="108.2" r="1.4" fill="#fff0e0" opacity="0.92"/><circle cx="187.8" cy="142.2" r="2.0" fill="#fff0e0" opacity="0.80"/><circle cx="340.5" cy="80.6" r="1.8" fill="#e8a184" opacity="0.56"/><circle cx="441.3" cy="57.5" r="1.0" fill="#e8a184" opacity="0.46"/><circle cx="182.4" cy="197.8" r="0.9" fill="#fff0e0" opacity="0.61"/><circle cx="398.3" cy="73.9" r="0.9" fill="#fff0e0" opacity="0.37"/><circle cx="471.2" cy="322.3" r="0.9" fill="#e8a184" opacity="0.79"/><circle cx="216.1" cy="99.0" r="1.6" fill="#e8a184" opacity="0.66"/><circle cx="491.2" cy="330.2" r="0.9" fill="#e8a184" opacity="0.76"/><circle cx="369.7" cy="80.2" r="1.8" fill="#fff0e0" opacity="0.38"/><circle cx="505.4" cy="218.7" r="1.3" fill="#fff0e0" opacity="0.80"/><circle cx="479.7" cy="335.0" r="1.0" fill="#e8a184" opacity="0.88"/><circle cx="230.9" cy="268.8" r="1.1" fill="#e8a184" opacity="0.83"/><circle cx="192.2" cy="182.2" r="1.3" fill="#e8a184" opacity="0.65"/><circle cx="187.6" cy="158.0" r="1.6" fill="#e8a184" opacity="0.42"/><circle cx="523.7" cy="273.1" r="1.6" fill="#e8a184" opacity="0.86"/><circle cx="170.0" cy="139.5" r="1.1" fill="#e8a184" opacity="0.59"/><circle cx="514.7" cy="265.0" r="1.5" fill="#e8a184" opacity="0.79"/><circle cx="268.3" cy="364.0" r="1.2" fill="#fff0e0" opacity="0.80"/><circle cx="520.2" cy="316.5" r="1.6" fill="#fff0e0" opacity="0.88"/><circle cx="385.1" cy="72.5" r="1.6" fill="#fff0e0" opacity="0.71"/><circle cx="485.4" cy="89.5" r="1.3" fill="#e8a184" opacity="0.95"/><circle cx="508.8" cy="86.0" r="1.2" fill="#fff0e0" opacity="0.62"/><circle cx="336.5" cy="68.2" r="2.1" fill="#e8a184" opacity="0.78"/><circle cx="510.3" cy="143.7" r="2.2" fill="#fff0e0" opacity="0.42"/><circle cx="241.9" cy="335.4" r="1.6" fill="#e8a184" opacity="0.79"/><circle cx="172.5" cy="132.5" r="1.5" fill="#e8a184" opacity="0.70"/><circle cx="188.3" cy="112.5" r="0.9" fill="#e8a184" opacity="0.59"/><circle cx="200.9" cy="210.9" r="1.5" fill="#e8a184" opacity="0.41"/><circle cx="287.3" cy="356.6" r="1.8" fill="#e8a184" opacity="0.70"/><circle cx="326.7" cy="337.8" r="1.2" fill="#e8a184" opacity="0.55"/><circle cx="287.9" cy="349.9" r="1.0" fill="#fff0e0" opacity="0.95"/><circle cx="215.2" cy="122.7" r="1.4" fill="#e8a184" opacity="0.87"/><circle cx="494.8" cy="98.2" r="1.3" fill="#e8a184" opacity="0.61"/><circle cx="480.2" cy="188.5" r="2.3" fill="#e8a184" opacity="0.95"/><circle cx="235.9" cy="265.9" r="1.5" fill="#e8a184" opacity="0.75"/><circle cx="297.3" cy="85.0" r="0.9" fill="#e8a184" opacity="0.50"/><circle cx="215.4" cy="314.7" r="2.3" fill="#e8a184" opacity="0.66"/><circle cx="375.1" cy="304.0" r="1.7" fill="#e8a184" opacity="0.72"/><circle cx="498.9" cy="151.1" r="1.7" fill="#e8a184" opacity="0.50"/><circle cx="260.7" cy="87.7" r="1.2" fill="#e8a184" opacity="0.66"/><circle cx="234.0" cy="102.0" r="1.1" fill="#e8a184" opacity="0.47"/><circle cx="472.6" cy="334.9" r="0.7" fill="#e8a184" opacity="0.56"/><circle cx="402.0" cy="60.8" r="1.4" fill="#fff0e0" opacity="0.39"/><circle cx="330.4" cy="80.9" r="0.8" fill="#e8a184" opacity="0.69"/><circle cx="503.7" cy="145.4" r="1.5" fill="#e8a184" opacity="0.28"/><circle cx="349.7" cy="325.9" r="2.2" fill="#e8a184" opacity="0.64"/><circle cx="389.7" cy="61.7" r="1.7" fill="#e8a184" opacity="0.74"/><circle cx="301.5" cy="362.3" r="1.4" fill="#e8a184" opacity="0.72"/><circle cx="487.4" cy="181.0" r="0.9" fill="#fff0e0" opacity="0.93"/><circle cx="188.5" cy="166.5" r="0.9" fill="#e8a184" opacity="0.52"/><circle cx="285.3" cy="349.5" r="2.0" fill="#e8a184" opacity="0.82"/><circle cx="265.0" cy="348.4" r="1.9" fill="#e8a184" opacity="0.81"/><circle cx="192.9" cy="202.9" r="1.3" fill="#e8a184" opacity="0.39"/><circle cx="492.1" cy="211.4" r="1.6" fill="#fff0e0" opacity="0.69"/><circle cx="192.2" cy="211.5" r="1.9" fill="#e8a184" opacity="0.56"/><circle cx="528.1" cy="296.5" r="1.0" fill="#fff0e0" opacity="0.95"/><circle cx="435.3" cy="78.3" r="0.8" fill="#fff0e0" opacity="0.55"/><circle cx="417.8" cy="71.4" r="1.7" fill="#e8a184" opacity="0.70"/><circle cx="491.1" cy="203.8" r="1.1" fill="#e8a184" opacity="0.86"/><circle cx="237.7" cy="324.7" r="1.6" fill="#e8a184" opacity="0.95"/><circle cx="489.4" cy="175.0" r="2.1" fill="#fff0e0" opacity="0.73"/><circle cx="531.1" cy="294.4" r="1.4" fill="#e8a184" opacity="0.86"/><circle cx="222.6" cy="233.8" r="1.1" fill="#fff0e0" opacity="0.68"/><circle cx="199.8" cy="196.8" r="0.8" fill="#e8a184" opacity="0.67"/><circle cx="510.2" cy="223.1" r="1.8" fill="#e8a184" opacity="0.88"/><circle cx="211.1" cy="99.7" r="2.1" fill="#e8a184" opacity="0.77"/><circle cx="529.2" cy="310.5" r="1.8" fill="#e8a184" opacity="0.79"/><circle cx="229.6" cy="276.6" r="1.9" fill="#e8a184" opacity="0.81"/><circle cx="232.3" cy="272.4" r="2.3" fill="#e8a184" opacity="0.78"/><circle cx="187.1" cy="138.5" r="0.9" fill="#fff0e0" opacity="0.84"/><circle cx="488.1" cy="90.7" r="1.2" fill="#fff0e0" opacity="0.67"/><circle cx="229.1" cy="342.6" r="2.1" fill="#e8a184" opacity="0.74"/><circle cx="459.3" cy="323.3" r="1.7" fill="#e8a184" opacity="0.52"/><circle cx="391.1" cy="78.8" r="1.5" fill="#fff0e0" opacity="0.65"/><circle cx="238.5" cy="336.7" r="1.6" fill="#e8a184" opacity="0.62"/><circle cx="322.1" cy="63.4" r="2.2" fill="#e8a184" opacity="0.42"/><circle cx="241.2" cy="351.6" r="1.5" fill="#e8a184" opacity="0.91"/><circle cx="357.4" cy="73.3" r="1.6" fill="#fff0e0" opacity="0.54"/><circle cx="493.6" cy="329.8" r="1.3" fill="#e8a184" opacity="0.88"/><circle cx="224.2" cy="91.5" r="2.1" fill="#e8a184" opacity="0.61"/><circle cx="513.2" cy="230.7" r="1.6" fill="#e8a184" opacity="0.83"/><circle cx="199.2" cy="207.7" r="1.3" fill="#e8a184" opacity="0.57"/><circle cx="223.1" cy="227.3" r="1.2" fill="#e8a184" opacity="0.64"/><circle cx="196.7" cy="134.8" r="1.1" fill="#e8a184" opacity="0.92"/><circle cx="188.9" cy="173.4" r="2.0" fill="#e8a184" opacity="0.73"/><circle cx="455.7" cy="318.3" r="1.9" fill="#fff0e0" opacity="0.61"/><circle cx="272.6" cy="80.7" r="1.6" fill="#e8a184" opacity="0.76"/><circle cx="188.8" cy="127.3" r="1.7" fill="#e8a184" opacity="0.84"/><circle cx="478.9" cy="67.0" r="1.7" fill="#e8a184" opacity="0.95"/><circle cx="213.8" cy="239.5" r="1.5" fill="#e8a184" opacity="0.70"/><circle cx="181.7" cy="128.0" r="1.8" fill="#e8a184" opacity="0.50"/><circle cx="297.6" cy="358.9" r="1.1" fill="#fff0e0" opacity="0.92"/><circle cx="513.0" cy="323.2" r="1.0" fill="#e8a184" opacity="0.63"/><circle cx="227.6" cy="241.9" r="1.1" fill="#fff0e0" opacity="0.61"/><circle cx="268.3" cy="357.8" r="2.0" fill="#e8a184" opacity="0.66"/><circle cx="200.4" cy="135.8" r="1.3" fill="#fff0e0" opacity="0.45"/><circle cx="215.5" cy="216.4" r="2.2" fill="#e8a184" opacity="0.72"/><circle cx="401.2" cy="317.2" r="1.3" fill="#e8a184" opacity="0.95"/><circle cx="349.0" cy="76.5" r="1.8" fill="#e8a184" opacity="0.39"/><circle cx="532.4" cy="276.8" r="1.7" fill="#e8a184" opacity="0.87"/><circle cx="374.1" cy="313.3" r="2.3" fill="#e8a184" opacity="0.70"/><circle cx="201.2" cy="134.7" r="1.6" fill="#e8a184" opacity="0.61"/><circle cx="220.3" cy="245.6" r="1.0" fill="#e8a184" opacity="0.65"/><circle cx="254.2" cy="345.6" r="0.7" fill="#e8a184" opacity="0.77"/><circle cx="387.5" cy="69.7" r="1.8" fill="#e8a184" opacity="0.59"/><circle cx="222.1" cy="237.5" r="1.3" fill="#e8a184" opacity="0.57"/><circle cx="500.4" cy="131.9" r="1.7" fill="#e8a184" opacity="0.53"/><circle cx="500.8" cy="234.7" r="1.3" fill="#e8a184" opacity="0.80"/><circle cx="536.3" cy="288.5" r="2.1" fill="#e8a184" opacity="0.95"/><circle cx="491.3" cy="205.0" r="2.2" fill="#fff0e0" opacity="0.95"/><circle cx="502.6" cy="325.3" r="1.0" fill="#e8a184" opacity="0.64"/><circle cx="224.6" cy="342.4" r="1.1" fill="#e8a184" opacity="0.95"/><circle cx="410.5" cy="60.7" r="1.1" fill="#e8a184" opacity="0.41"/><circle cx="510.3" cy="150.3" r="1.2" fill="#e8a184" opacity="0.81"/><circle cx="269.5" cy="73.8" r="1.2" fill="#fff0e0" opacity="0.51"/><circle cx="410.5" cy="313.1" r="2.0" fill="#e8a184" opacity="0.89"/><circle cx="234.4" cy="337.3" r="0.8" fill="#e8a184" opacity="0.95"/><circle cx="229.1" cy="292.7" r="2.1" fill="#e8a184" opacity="0.75"/><circle cx="367.5" cy="66.0" r="2.2" fill="#e8a184" opacity="0.70"/><circle cx="504.7" cy="213.1" r="1.7" fill="#e8a184" opacity="0.92"/><circle cx="452.9" cy="60.0" r="1.7" fill="#e8a184" opacity="0.57"/><circle cx="501.8" cy="218.2" r="1.0" fill="#e8a184" opacity="0.95"/><circle cx="394.2" cy="305.8" r="1.2" fill="#e8a184" opacity="0.87"/><circle cx="386.8" cy="66.1" r="1.1" fill="#e8a184" opacity="0.38"/><circle cx="212.8" cy="113.0" r="1.2" fill="#e8a184" opacity="0.85"/><circle cx="220.0" cy="263.1" r="2.2" fill="#e8a184" opacity="0.66"/><circle cx="487.8" cy="196.7" r="2.0" fill="#e8a184" opacity="0.87"/><circle cx="380.2" cy="64.4" r="1.0" fill="#fff0e0" opacity="0.58"/><circle cx="512.5" cy="137.9" r="1.0" fill="#e8a184" opacity="0.41"/><circle cx="437.1" cy="323.1" r="1.0" fill="#e8a184" opacity="0.52"/><circle cx="416.4" cy="314.4" r="1.3" fill="#e8a184" opacity="0.77"/><circle cx="252.1" cy="85.1" r="2.2" fill="#e8a184" opacity="0.72"/><circle cx="218.2" cy="214.9" r="1.6" fill="#e8a184" opacity="0.54"/><circle cx="359.9" cy="75.3" r="1.1" fill="#fff0e0" opacity="0.71"/><circle cx="296.7" cy="69.8" r="2.2" fill="#fff0e0" opacity="0.73"/><circle cx="515.1" cy="299.5" r="0.8" fill="#fff0e0" opacity="0.95"/><circle cx="500.6" cy="81.1" r="1.7" fill="#e8a184" opacity="0.70"/><circle cx="180.4" cy="181.3" r="1.4" fill="#e8a184" opacity="0.59"/><circle cx="186.7" cy="117.7" r="2.2" fill="#e8a184" opacity="0.42"/><circle cx="192.0" cy="177.9" r="1.8" fill="#e8a184" opacity="0.73"/><circle cx="533.8" cy="272.5" r="1.4" fill="#e8a184" opacity="0.56"/><circle cx="426.7" cy="323.6" r="1.2" fill="#e8a184" opacity="0.54"/><circle cx="404.9" cy="69.7" r="0.8" fill="#e8a184" opacity="0.30"/><circle cx="189.0" cy="198.5" r="1.9" fill="#e8a184" opacity="0.69"/><circle cx="475.2" cy="79.8" r="2.2" fill="#e8a184" opacity="0.94"/><circle cx="222.5" cy="287.7" r="1.7" fill="#e8a184" opacity="0.50"/><circle cx="505.4" cy="241.3" r="2.0" fill="#e8a184" opacity="0.71"/><circle cx="498.6" cy="207.8" r="1.6" fill="#e8a184" opacity="0.90"/><circle cx="410.5" cy="308.8" r="1.5" fill="#e8a184" opacity="0.82"/><circle cx="417.5" cy="60.8" r="1.3" fill="#e8a184" opacity="0.63"/><circle cx="496.1" cy="162.8" r="1.3" fill="#e8a184" opacity="0.73"/><circle cx="495.2" cy="72.3" r="1.8" fill="#e8a184" opacity="0.66"/><circle cx="221.1" cy="266.1" r="1.9" fill="#e8a184" opacity="0.57"/><circle cx="299.8" cy="70.2" r="1.0" fill="#e8a184" opacity="0.55"/><circle cx="437.3" cy="58.2" r="0.8" fill="#e8a184" opacity="0.56"/><circle cx="212.6" cy="216.9" r="0.8" fill="#e8a184" opacity="0.63"/><circle cx="507.5" cy="156.7" r="1.1" fill="#e8a184" opacity="0.81"/><circle cx="224.7" cy="250.1" r="1.6" fill="#fff0e0" opacity="0.78"/><circle cx="189.5" cy="167.5" r="2.2" fill="#e8a184" opacity="0.87"/><circle cx="220.4" cy="92.5" r="2.1" fill="#e8a184" opacity="0.53"/><circle cx="367.6" cy="61.5" r="2.1" fill="#e8a184" opacity="0.55"/><circle cx="501.3" cy="206.5" r="1.4" fill="#e8a184" opacity="0.82"/><circle cx="265.8" cy="368.1" r="1.3" fill="#fff0e0" opacity="0.61"/><circle cx="392.9" cy="74.0" r="1.6" fill="#e8a184" opacity="0.43"/><circle cx="301.0" cy="83.3" r="1.6" fill="#e8a184" opacity="0.58"/><circle cx="467.1" cy="66.0" r="1.6" fill="#e8a184" opacity="0.44"/><circle cx="384.5" cy="302.2" r="1.4" fill="#e8a184" opacity="0.80"/><circle cx="510.6" cy="327.9" r="1.7" fill="#e8a184" opacity="0.94"/><circle cx="275.7" cy="79.1" r="2.2" fill="#e8a184" opacity="0.44"/><circle cx="450.1" cy="75.2" r="1.9" fill="#e8a184" opacity="0.81"/><circle cx="491.0" cy="104.9" r="1.2" fill="#e8a184" opacity="0.88"/><circle cx="510.0" cy="300.6" r="2.2" fill="#e8a184" opacity="0.95"/><circle cx="187.3" cy="137.6" r="2.2" fill="#e8a184" opacity="0.74"/><circle cx="222.6" cy="245.3" r="1.3" fill="#fff0e0" opacity="0.59"/><circle cx="495.7" cy="336.6" r="2.0" fill="#e8a184" opacity="0.88"/><circle cx="431.8" cy="77.8" r="1.5" fill="#e8a184" opacity="0.42"/><circle cx="339.4" cy="338.6" r="2.1" fill="#e8a184" opacity="0.73"/><circle cx="379.9" cy="62.3" r="1.9" fill="#e8a184" opacity="0.67"/><circle cx="328.3" cy="340.9" r="2.1" fill="#e8a184" opacity="0.47"/><circle cx="345.8" cy="69.1" r="1.8" fill="#fff0e0" opacity="0.66"/><circle cx="370.8" cy="314.4" r="1.5" fill="#e8a184" opacity="0.89"/><circle cx="448.2" cy="320.7" r="1.4" fill="#e8a184" opacity="0.46"/><circle cx="180.5" cy="152.1" r="1.4" fill="#e8a184" opacity="0.67"/><circle cx="205.6" cy="223.4" r="0.8" fill="#e8a184" opacity="0.86"/><circle cx="510.0" cy="115.2" r="1.7" fill="#fff0e0" opacity="0.58"/><circle cx="229.6" cy="111.9" r="0.9" fill="#e8a184" opacity="0.81"/><circle cx="296.5" cy="353.4" r="1.3" fill="#fff0e0" opacity="0.61"/><circle cx="388.0" cy="314.5" r="1.2" fill="#fff0e0" opacity="0.81"/><circle cx="324.5" cy="67.9" r="1.8" fill="#e8a184" opacity="0.46"/><circle cx="372.7" cy="315.7" r="1.4" fill="#fff0e0" opacity="0.83"/><circle cx="517.5" cy="268.9" r="0.7" fill="#e8a184" opacity="0.90"/><circle cx="515.2" cy="141.1" r="1.7" fill="#e8a184" opacity="0.39"/><circle cx="401.9" cy="310.9" r="2.2" fill="#e8a184" opacity="0.95"/><circle cx="300.0" cy="79.1" r="2.0" fill="#e8a184" opacity="0.57"/><circle cx="500.7" cy="219.9" r="2.0" fill="#e8a184" opacity="0.78"/><circle cx="280.5" cy="82.0" r="1.2" fill="#e8a184" opacity="0.68"/><circle cx="443.0" cy="76.7" r="1.4" fill="#e8a184" opacity="0.51"/><circle cx="362.6" cy="323.5" r="2.3" fill="#fff0e0" opacity="0.85"/><circle cx="188.5" cy="145.3" r="2.2" fill="#e8a184" opacity="0.59"/><circle cx="183.9" cy="118.8" r="1.1" fill="#e8a184" opacity="0.64"/><circle cx="521.1" cy="115.9" r="2.3" fill="#fff0e0" opacity="0.76"/><circle cx="513.8" cy="125.6" r="0.9" fill="#fff0e0" opacity="0.44"/><circle cx="482.8" cy="201.7" r="0.7" fill="#e8a184" opacity="0.95"/><circle cx="426.6" cy="321.3" r="1.6" fill="#fff0e0" opacity="0.86"/><circle cx="508.9" cy="219.4" r="2.2" fill="#e8a184" opacity="0.93"/><circle cx="505.0" cy="222.2" r="1.9" fill="#e8a184" opacity="0.65"/><circle cx="307.1" cy="65.9" r="1.6" fill="#e8a184" opacity="0.36"/><circle cx="171.1" cy="175.0" r="1.6" fill="#e8a184" opacity="0.42"/><circle cx="226.5" cy="309.8" r="0.7" fill="#e8a184" opacity="0.46"/><circle cx="283.9" cy="79.7" r="1.0" fill="#e8a184" opacity="0.79"/><circle cx="498.8" cy="189.3" r="1.5" fill="#fff0e0" opacity="0.83"/><circle cx="507.5" cy="160.5" r="1.3" fill="#e8a184" opacity="0.85"/><circle cx="521.1" cy="274.8" r="2.0" fill="#e8a184" opacity="0.81"/><circle cx="235.2" cy="235.9" r="2.2" fill="#fff0e0" opacity="0.67"/><circle cx="483.3" cy="69.9" r="1.2" fill="#e8a184" opacity="0.87"/><circle cx="310.9" cy="64.7" r="1.1" fill="#fff0e0" opacity="0.59"/><circle cx="377.9" cy="299.8" r="1.5" fill="#fff0e0" opacity="0.90"/><circle cx="292.9" cy="350.4" r="2.3" fill="#e8a184" opacity="0.69"/><circle cx="263.5" cy="90.1" r="1.4" fill="#e8a184" opacity="0.30"/><circle cx="436.9" cy="56.8" r="0.9" fill="#e8a184" opacity="0.79"/><circle cx="215.3" cy="292.1" r="2.1" fill="#e8a184" opacity="0.33"/><circle cx="502.3" cy="330.8" r="1.7" fill="#e8a184" opacity="0.59"/><circle cx="241.0" cy="105.7" r="1.4" fill="#fff0e0" opacity="0.54"/><circle cx="364.8" cy="76.6" r="2.2" fill="#fff0e0" opacity="0.63"/><circle cx="235.6" cy="243.1" r="1.5" fill="#e8a184" opacity="0.88"/><circle cx="222.5" cy="229.3" r="1.5" fill="#e8a184" opacity="0.78"/><circle cx="167.7" cy="156.6" r="2.2" fill="#e8a184" opacity="0.60"/><circle cx="266.1" cy="74.7" r="1.8" fill="#e8a184" opacity="0.74"/><circle cx="444.8" cy="78.5" r="2.2" fill="#e8a184" opacity="0.81"/><circle cx="196.0" cy="193.6" r="1.9" fill="#e8a184" opacity="0.47"/><circle cx="520.0" cy="259.7" r="1.5" fill="#fff0e0" opacity="0.83"/><circle cx="513.6" cy="124.8" r="1.4" fill="#e8a184" opacity="0.38"/><circle cx="501.7" cy="165.9" r="2.2" fill="#e8a184" opacity="0.92"/><circle cx="350.0" cy="317.9" r="1.5" fill="#fff0e0" opacity="0.61"/><circle cx="493.9" cy="189.2" r="1.6" fill="#e8a184" opacity="0.72"/><circle cx="226.3" cy="250.4" r="2.2" fill="#e8a184" opacity="0.66"/><circle cx="449.0" cy="326.3" r="1.9" fill="#e8a184" opacity="0.45"/><circle cx="443.9" cy="319.5" r="1.9" fill="#e8a184" opacity="0.76"/><circle cx="296.1" cy="83.6" r="2.2" fill="#e8a184" opacity="0.40"/><circle cx="508.2" cy="155.3" r="0.9" fill="#e8a184" opacity="0.70"/><circle cx="170.2" cy="152.9" r="1.8" fill="#e8a184" opacity="0.62"/><circle cx="180.6" cy="148.7" r="0.8" fill="#e8a184" opacity="0.72"/><circle cx="325.4" cy="169.7" r="1.4" fill="#dc947c" opacity="0.13"/><circle cx="375.7" cy="199.8" r="1.0" fill="#dc947c" opacity="0.14"/><circle cx="396.4" cy="210.3" r="0.8" fill="#dc947c" opacity="0.16"/><circle cx="293.2" cy="254.4" r="0.7" fill="#dc947c" opacity="0.14"/><circle cx="400.9" cy="237.4" r="1.0" fill="#dc947c" opacity="0.16"/><circle cx="334.6" cy="126.6" r="0.9" fill="#dc947c" opacity="0.20"/><circle cx="358.1" cy="190.2" r="1.3" fill="#dc947c" opacity="0.26"/><circle cx="282.3" cy="207.1" r="0.5" fill="#dc947c" opacity="0.20"/><circle cx="345.3" cy="212.6" r="0.6" fill="#dc947c" opacity="0.12"/><circle cx="334.1" cy="212.8" r="1.0" fill="#dc947c" opacity="0.12"/><circle cx="306.1" cy="143.0" r="1.2" fill="#dc947c" opacity="0.29"/><circle cx="292.0" cy="184.7" r="1.5" fill="#dc947c" opacity="0.21"/><circle cx="345.9" cy="136.4" r="0.9" fill="#dc947c" opacity="0.30"/><circle cx="370.6" cy="151.3" r="0.9" fill="#dc947c" opacity="0.26"/><circle cx="362.2" cy="195.4" r="0.5" fill="#dc947c" opacity="0.11"/><circle cx="359.3" cy="143.0" r="1.0" fill="#dc947c" opacity="0.17"/><circle cx="352.6" cy="232.1" r="0.6" fill="#dc947c" opacity="0.28"/><circle cx="399.2" cy="142.6" r="1.4" fill="#dc947c" opacity="0.20"/><circle cx="307.3" cy="188.9" r="1.1" fill="#dc947c" opacity="0.11"/><circle cx="318.7" cy="239.7" r="1.0" fill="#dc947c" opacity="0.23"/><circle cx="379.7" cy="202.6" r="0.7" fill="#dc947c" opacity="0.22"/><circle cx="427.9" cy="198.7" r="1.2" fill="#dc947c" opacity="0.19"/><circle cx="334.2" cy="212.0" r="0.6" fill="#dc947c" opacity="0.21"/><circle cx="425.5" cy="221.9" r="1.4" fill="#dc947c" opacity="0.16"/><circle cx="395.8" cy="244.0" r="1.3" fill="#dc947c" opacity="0.18"/><circle cx="351.3" cy="200.7" r="1.0" fill="#dc947c" opacity="0.22"/><circle cx="408.9" cy="179.8" r="0.6" fill="#dc947c" opacity="0.28"/><circle cx="403.5" cy="147.2" r="1.3" fill="#dc947c" opacity="0.19"/><circle cx="434.7" cy="184.1" r="1.2" fill="#dc947c" opacity="0.15"/><circle cx="319.8" cy="171.1" r="0.6" fill="#dc947c" opacity="0.16"/><circle cx="340.0" cy="242.0" r="1.1" fill="#dc947c" opacity="0.26"/><circle cx="383.8" cy="179.1" r="0.7" fill="#dc947c" opacity="0.21"/><circle cx="370.9" cy="189.9" r="1.1" fill="#dc947c" opacity="0.19"/><circle cx="338.1" cy="177.9" r="0.5" fill="#dc947c" opacity="0.11"/><circle cx="401.7" cy="198.6" r="0.6" fill="#dc947c" opacity="0.13"/><circle cx="346.0" cy="192.1" r="0.9" fill="#dc947c" opacity="0.24"/><circle cx="355.7" cy="202.1" r="1.2" fill="#dc947c" opacity="0.26"/><circle cx="289.6" cy="175.7" r="0.8" fill="#dc947c" opacity="0.15"/><circle cx="300.1" cy="179.4" r="0.7" fill="#dc947c" opacity="0.27"/><circle cx="323.6" cy="224.6" r="1.3" fill="#dc947c" opacity="0.23"/><circle cx="379.1" cy="238.3" r="1.1" fill="#dc947c" opacity="0.17"/><circle cx="308.3" cy="168.9" r="0.9" fill="#dc947c" opacity="0.25"/><circle cx="351.0" cy="195.3" r="1.1" fill="#dc947c" opacity="0.20"/><circle cx="420.8" cy="215.7" r="0.5" fill="#dc947c" opacity="0.25"/><circle cx="329.6" cy="171.7" r="0.5" fill="#dc947c" opacity="0.17"/><circle cx="403.5" cy="167.1" r="1.3" fill="#dc947c" opacity="0.16"/><circle cx="275.2" cy="216.3" r="0.7" fill="#dc947c" opacity="0.28"/><circle cx="373.9" cy="163.8" r="1.1" fill="#dc947c" opacity="0.11"/><circle cx="315.1" cy="247.5" r="1.1" fill="#dc947c" opacity="0.15"/><circle cx="355.5" cy="202.2" r="1.2" fill="#dc947c" opacity="0.29"/><circle cx="307.9" cy="196.9" r="0.9" fill="#dc947c" opacity="0.23"/><circle cx="313.0" cy="182.2" r="1.1" fill="#dc947c" opacity="0.19"/><circle cx="353.7" cy="212.6" r="0.8" fill="#dc947c" opacity="0.20"/><circle cx="354.3" cy="218.6" r="1.1" fill="#dc947c" opacity="0.18"/><circle cx="361.3" cy="150.1" r="1.3" fill="#dc947c" opacity="0.13"/><circle cx="331.5" cy="225.5" r="1.4" fill="#dc947c" opacity="0.13"/><circle cx="395.1" cy="209.4" r="1.4" fill="#dc947c" opacity="0.24"/><circle cx="268.0" cy="196.8" r="0.6" fill="#dc947c" opacity="0.11"/><circle cx="282.2" cy="222.7" r="0.9" fill="#dc947c" opacity="0.18"/><circle cx="408.3" cy="226.1" r="0.9" fill="#dc947c" opacity="0.25"/><circle cx="316.4" cy="168.7" r="1.5" fill="#dc947c" opacity="0.17"/><circle cx="389.3" cy="157.7" r="0.6" fill="#dc947c" opacity="0.19"/><circle cx="292.7" cy="216.3" r="1.4" fill="#dc947c" opacity="0.24"/><circle cx="291.0" cy="232.2" r="0.7" fill="#dc947c" opacity="0.12"/><circle cx="405.3" cy="179.6" r="0.5" fill="#dc947c" opacity="0.24"/><circle cx="370.4" cy="216.9" r="0.9" fill="#dc947c" opacity="0.27"/><circle cx="354.7" cy="201.1" r="0.7" fill="#dc947c" opacity="0.24"/><circle cx="351.9" cy="190.2" r="0.6" fill="#dc947c" opacity="0.11"/><circle cx="316.5" cy="229.5" r="0.9" fill="#dc947c" opacity="0.26"/><circle cx="289.7" cy="247.6" r="1.1" fill="#dc947c" opacity="0.17"/></svg>